<mxfile host="app.diagrams.net" modified="2023-11-13T02:03:44.179Z" agent="Mozilla/5.0 (Windows NT 10.0; Win64; x64) AppleWebKit/537.36 (KHTML, like Gecko) Chrome/119.0.0.0 Safari/537.36" etag="3lECAWncb1w7gHe0y4z0" version="22.1.0" type="device">
  <diagram name="ページ1" id="mYPJpADB8LSbRxaCcDzf">
    <mxGraphModel dx="1221" dy="689" grid="1" gridSize="10" guides="1" tooltips="1" connect="1" arrows="1" fold="1" page="1" pageScale="1" pageWidth="827" pageHeight="1169" math="0" shadow="0">
      <root>
        <mxCell id="0" />
        <mxCell id="1" parent="0" />
        <mxCell id="YAJTBN0ZqSXuDyqm5DSf-8" value="" style="rounded=0;whiteSpace=wrap;html=1;fillColor=none;" parent="1" vertex="1">
          <mxGeometry x="305" y="160" width="290" height="980" as="geometry" />
        </mxCell>
        <mxCell id="RcrXvznWjippwVwjiBku-1" value="登録済ユーザ" style="shape=umlActor;verticalLabelPosition=bottom;verticalAlign=top;html=1;outlineConnect=0;" parent="1" vertex="1">
          <mxGeometry x="150" y="645" width="30" height="60" as="geometry" />
        </mxCell>
        <mxCell id="RcrXvznWjippwVwjiBku-4" value="社内SNSシステム" style="text;html=1;strokeColor=none;fillColor=none;align=center;verticalAlign=middle;whiteSpace=wrap;rounded=0;" parent="1" vertex="1">
          <mxGeometry x="390" y="170" width="120" height="30" as="geometry" />
        </mxCell>
        <mxCell id="RcrXvznWjippwVwjiBku-5" value="アカウント情報の登録をする" style="ellipse;whiteSpace=wrap;html=1;" parent="1" vertex="1">
          <mxGeometry x="350" y="220" width="220" height="50" as="geometry" />
        </mxCell>
        <mxCell id="RcrXvznWjippwVwjiBku-8" value="アカウント情報を検索する" style="ellipse;whiteSpace=wrap;html=1;" parent="1" vertex="1">
          <mxGeometry x="360" y="360" width="200" height="50" as="geometry" />
        </mxCell>
        <mxCell id="RcrXvznWjippwVwjiBku-9" value="日記を投稿する" style="ellipse;whiteSpace=wrap;html=1;" parent="1" vertex="1">
          <mxGeometry x="360" y="440" width="200" height="50" as="geometry" />
        </mxCell>
        <mxCell id="RcrXvznWjippwVwjiBku-10" value="友達の申請をする" style="ellipse;whiteSpace=wrap;html=1;" parent="1" vertex="1">
          <mxGeometry x="350" y="650" width="200" height="50" as="geometry" />
        </mxCell>
        <mxCell id="RcrXvznWjippwVwjiBku-13" value="友達の日記にコメントする" style="ellipse;whiteSpace=wrap;html=1;" parent="1" vertex="1">
          <mxGeometry x="350" y="510" width="200" height="50" as="geometry" />
        </mxCell>
        <mxCell id="RcrXvznWjippwVwjiBku-15" value="" style="endArrow=none;html=1;rounded=0;entryX=0;entryY=0.5;entryDx=0;entryDy=0;exitX=0.5;exitY=0.5;exitDx=0;exitDy=0;exitPerimeter=0;" parent="1" source="hBlamd436Aj-FBmo7-tk-1" target="RcrXvznWjippwVwjiBku-5" edge="1">
          <mxGeometry width="50" height="50" relative="1" as="geometry">
            <mxPoint x="320" y="440" as="sourcePoint" />
            <mxPoint x="370" y="390" as="targetPoint" />
          </mxGeometry>
        </mxCell>
        <mxCell id="RcrXvznWjippwVwjiBku-16" value="" style="endArrow=none;html=1;rounded=0;entryX=0;entryY=0.5;entryDx=0;entryDy=0;exitX=0.5;exitY=0.5;exitDx=0;exitDy=0;exitPerimeter=0;" parent="1" source="RcrXvznWjippwVwjiBku-1" target="RcrXvznWjippwVwjiBku-8" edge="1">
          <mxGeometry width="50" height="50" relative="1" as="geometry">
            <mxPoint x="265" y="255" as="sourcePoint" />
            <mxPoint x="360" y="255" as="targetPoint" />
          </mxGeometry>
        </mxCell>
        <mxCell id="RcrXvznWjippwVwjiBku-17" value="" style="endArrow=none;html=1;rounded=0;entryX=0;entryY=0.5;entryDx=0;entryDy=0;exitX=0.5;exitY=0.5;exitDx=0;exitDy=0;exitPerimeter=0;" parent="1" source="RcrXvznWjippwVwjiBku-1" target="RcrXvznWjippwVwjiBku-9" edge="1">
          <mxGeometry width="50" height="50" relative="1" as="geometry">
            <mxPoint x="265" y="255" as="sourcePoint" />
            <mxPoint x="360" y="355" as="targetPoint" />
          </mxGeometry>
        </mxCell>
        <mxCell id="YAJTBN0ZqSXuDyqm5DSf-1" value="" style="endArrow=none;html=1;rounded=0;entryX=0.5;entryY=0.5;entryDx=0;entryDy=0;entryPerimeter=0;exitX=0;exitY=0.5;exitDx=0;exitDy=0;" parent="1" source="RcrXvznWjippwVwjiBku-13" target="RcrXvznWjippwVwjiBku-1" edge="1">
          <mxGeometry width="50" height="50" relative="1" as="geometry">
            <mxPoint x="130" y="450" as="sourcePoint" />
            <mxPoint x="180" y="400" as="targetPoint" />
          </mxGeometry>
        </mxCell>
        <mxCell id="YAJTBN0ZqSXuDyqm5DSf-2" value="" style="endArrow=none;html=1;rounded=0;entryX=0.5;entryY=0.5;entryDx=0;entryDy=0;entryPerimeter=0;exitX=0;exitY=0.5;exitDx=0;exitDy=0;" parent="1" source="RcrXvznWjippwVwjiBku-10" target="RcrXvznWjippwVwjiBku-1" edge="1">
          <mxGeometry width="50" height="50" relative="1" as="geometry">
            <mxPoint x="210" y="390" as="sourcePoint" />
            <mxPoint x="260" y="340" as="targetPoint" />
          </mxGeometry>
        </mxCell>
        <mxCell id="YAJTBN0ZqSXuDyqm5DSf-4" value="アカウント情報の変更をする" style="ellipse;whiteSpace=wrap;html=1;" parent="1" vertex="1">
          <mxGeometry x="350" y="290" width="220" height="50" as="geometry" />
        </mxCell>
        <mxCell id="YAJTBN0ZqSXuDyqm5DSf-5" value="" style="endArrow=none;html=1;rounded=0;entryX=0.5;entryY=0.5;entryDx=0;entryDy=0;entryPerimeter=0;exitX=0;exitY=0.5;exitDx=0;exitDy=0;" parent="1" source="YAJTBN0ZqSXuDyqm5DSf-4" target="RcrXvznWjippwVwjiBku-1" edge="1">
          <mxGeometry width="50" height="50" relative="1" as="geometry">
            <mxPoint x="470" y="400" as="sourcePoint" />
            <mxPoint x="520" y="350" as="targetPoint" />
          </mxGeometry>
        </mxCell>
        <mxCell id="YAJTBN0ZqSXuDyqm5DSf-6" value="友達申請の承認をする" style="ellipse;whiteSpace=wrap;html=1;" parent="1" vertex="1">
          <mxGeometry x="350" y="720" width="200" height="50" as="geometry" />
        </mxCell>
        <mxCell id="YAJTBN0ZqSXuDyqm5DSf-7" value="" style="endArrow=none;html=1;rounded=0;entryX=0.5;entryY=0.5;entryDx=0;entryDy=0;entryPerimeter=0;exitX=0;exitY=0.5;exitDx=0;exitDy=0;" parent="1" source="YAJTBN0ZqSXuDyqm5DSf-6" target="RcrXvznWjippwVwjiBku-1" edge="1">
          <mxGeometry width="50" height="50" relative="1" as="geometry">
            <mxPoint x="470" y="490" as="sourcePoint" />
            <mxPoint x="520" y="440" as="targetPoint" />
          </mxGeometry>
        </mxCell>
        <mxCell id="hBlamd436Aj-FBmo7-tk-1" value="未登録ユーザ" style="shape=umlActor;verticalLabelPosition=bottom;verticalAlign=top;html=1;outlineConnect=0;" parent="1" vertex="1">
          <mxGeometry x="190" y="215" width="30" height="60" as="geometry" />
        </mxCell>
        <mxCell id="hBlamd436Aj-FBmo7-tk-3" value="友達の日記にリアクションをする" style="ellipse;whiteSpace=wrap;html=1;" parent="1" vertex="1">
          <mxGeometry x="353.5" y="580" width="213" height="50" as="geometry" />
        </mxCell>
        <mxCell id="hBlamd436Aj-FBmo7-tk-5" value="" style="endArrow=none;html=1;rounded=0;entryX=0;entryY=0.5;entryDx=0;entryDy=0;exitX=0.5;exitY=0.5;exitDx=0;exitDy=0;exitPerimeter=0;" parent="1" source="RcrXvznWjippwVwjiBku-1" target="hBlamd436Aj-FBmo7-tk-3" edge="1">
          <mxGeometry width="50" height="50" relative="1" as="geometry">
            <mxPoint x="215" y="475" as="sourcePoint" />
            <mxPoint x="370" y="475" as="targetPoint" />
          </mxGeometry>
        </mxCell>
        <mxCell id="9HVmpE2RDb0Y8Yk5igjd-9" value="ログインする" style="ellipse;whiteSpace=wrap;html=1;" parent="1" vertex="1">
          <mxGeometry x="350" y="800" width="200" height="50" as="geometry" />
        </mxCell>
        <mxCell id="9HVmpE2RDb0Y8Yk5igjd-11" value="" style="endArrow=none;html=1;rounded=0;entryX=0;entryY=0.5;entryDx=0;entryDy=0;exitX=0.5;exitY=0.5;exitDx=0;exitDy=0;exitPerimeter=0;" parent="1" source="RcrXvznWjippwVwjiBku-1" target="9HVmpE2RDb0Y8Yk5igjd-9" edge="1">
          <mxGeometry width="50" height="50" relative="1" as="geometry">
            <mxPoint x="180" y="790" as="sourcePoint" />
            <mxPoint x="230" y="740" as="targetPoint" />
          </mxGeometry>
        </mxCell>
        <mxCell id="6PMGragq9jPRWLUPCs31-1" value="タイムラインを表示する" style="ellipse;whiteSpace=wrap;html=1;" parent="1" vertex="1">
          <mxGeometry x="350" y="870" width="200" height="50" as="geometry" />
        </mxCell>
        <mxCell id="6PMGragq9jPRWLUPCs31-2" value="日記の詳細を表示する" style="ellipse;whiteSpace=wrap;html=1;" parent="1" vertex="1">
          <mxGeometry x="350" y="940" width="200" height="50" as="geometry" />
        </mxCell>
        <mxCell id="6PMGragq9jPRWLUPCs31-5" value="" style="endArrow=none;html=1;rounded=0;entryX=0;entryY=0.5;entryDx=0;entryDy=0;exitX=0.5;exitY=0.5;exitDx=0;exitDy=0;exitPerimeter=0;" parent="1" source="RcrXvznWjippwVwjiBku-1" target="6PMGragq9jPRWLUPCs31-1" edge="1">
          <mxGeometry width="50" height="50" relative="1" as="geometry">
            <mxPoint x="210" y="580" as="sourcePoint" />
            <mxPoint x="343" y="910" as="targetPoint" />
          </mxGeometry>
        </mxCell>
        <mxCell id="6PMGragq9jPRWLUPCs31-6" value="" style="endArrow=none;html=1;rounded=0;entryX=0;entryY=0.5;entryDx=0;entryDy=0;exitX=0.5;exitY=0.5;exitDx=0;exitDy=0;exitPerimeter=0;" parent="1" source="RcrXvznWjippwVwjiBku-1" target="6PMGragq9jPRWLUPCs31-2" edge="1">
          <mxGeometry width="50" height="50" relative="1" as="geometry">
            <mxPoint x="190" y="610" as="sourcePoint" />
            <mxPoint x="323" y="940" as="targetPoint" />
          </mxGeometry>
        </mxCell>
        <mxCell id="sf9SyPuxsXzCMudftXwq-1" value="ログアウトする" style="ellipse;whiteSpace=wrap;html=1;" vertex="1" parent="1">
          <mxGeometry x="350" y="1010" width="200" height="50" as="geometry" />
        </mxCell>
        <mxCell id="sf9SyPuxsXzCMudftXwq-2" value="" style="endArrow=none;html=1;rounded=0;entryX=0;entryY=0.5;entryDx=0;entryDy=0;" edge="1" parent="1" source="RcrXvznWjippwVwjiBku-1" target="sf9SyPuxsXzCMudftXwq-1">
          <mxGeometry width="50" height="50" relative="1" as="geometry">
            <mxPoint x="170" y="550" as="sourcePoint" />
            <mxPoint x="315" y="1050" as="targetPoint" />
          </mxGeometry>
        </mxCell>
        <mxCell id="sf9SyPuxsXzCMudftXwq-4" value="通知を表示する" style="ellipse;whiteSpace=wrap;html=1;" vertex="1" parent="1">
          <mxGeometry x="350" y="1080" width="200" height="50" as="geometry" />
        </mxCell>
        <mxCell id="sf9SyPuxsXzCMudftXwq-5" value="" style="endArrow=none;html=1;rounded=0;entryX=0;entryY=0.5;entryDx=0;entryDy=0;exitX=0.5;exitY=0.5;exitDx=0;exitDy=0;exitPerimeter=0;" edge="1" parent="1" source="RcrXvznWjippwVwjiBku-1" target="sf9SyPuxsXzCMudftXwq-4">
          <mxGeometry width="50" height="50" relative="1" as="geometry">
            <mxPoint x="180" y="550" as="sourcePoint" />
            <mxPoint x="317" y="1090" as="targetPoint" />
          </mxGeometry>
        </mxCell>
      </root>
    </mxGraphModel>
  </diagram>
</mxfile>
